# xmcd CD database file
#
# Track frame offsets:
#	150
#	14067
#	34099
#	53193
#	66550
#	86875
#	99924
#	122011
#	137154
#	147051
#	166202
#	177435
#	194073
#	223468
#	248217
#	256991
#
# Disc length: 3926 seconds
#
# Revision: 0
# Processed by: cddbd v1.5.2PL0 Copyright (c) Steve Scherf et al.
# Submitted via: CDex 1.81
#
DISCID=fa0f5410
DTITLE=Hoboes - Vagabondage Vol.2
DYEAR=2020
DGENRE=Blues
TTITLE0=01 King of the road
TTITLE1=02 Back home again
TTITLE2=03 Freight train blues
TTITLE3=04 Coney Island washboard
TTITLE4=05 Riding down the canyon
TTITLE5=06 Oklahoma hills
TTITLE6=07 Love hurts
TTITLE7=08 Sitting on top of the world
TTITLE8=09 Cole Younger polka
TTITLE9=10 Engine 143
TTITLE10=11 Between the devil and the deep blue sea
TTITLE11=12 Miss the Mississippi and you
TTITLE12=13 Marie Jeanne
TTITLE13=14 Here in California
TTITLE14=15 Darling you and I are through
TTITLE15=16 Midnight Special Blues
EXTD=YEAR: 2020
EXTT0=
EXTT1=
EXTT2=
EXTT3=
EXTT4=
EXTT5=
EXTT6=
EXTT7=
EXTT8=
EXTT9=
EXTT10=
EXTT11=
EXTT12=
EXTT13=
EXTT14=
EXTT15=
PLAYORDER=
